<?xml version="1.0" encoding="UTF-8"?>
<svg id="_Слой_2" data-name="Слой 2" xmlns="http://www.w3.org/2000/svg" viewBox="0 0 64 48">
  <defs>
    <style>
      .cls-1 {
        fill: #c00;
        stroke-width: 0px;
      }
    </style>
  </defs>
  <g id="draw">
    <g id="QFormLogo">
      <path class="cls-1" d="M64,16.46H30.15l-3.1,3.06H.36s-1.08.39.73,2.34,12.42,13.03,24.71,15.81c.18.04.39.09.56.16.53.32,1.57,1.95-.03,3.18-1.73.75-9.57,3.6-9.57,3.6,0,0-1.11.58-1.08,1.16s0,2.23,0,2.23h32.53v-1.99s-.07-.96-.87-1.34-10.06-3.94-10.06-3.94c0,0-.83-.27-.83-1.34s-.17-1.71.87-2.09,26.67-10.44,26.67-10.44v-10.41Z"/>
      <polygon class="cls-1" points="47.53 14.9 47.53 2.42 45.18 .1 38.7 0 38.67 5.71 0 5.71 0 9.41 38.75 9.41 38.75 14.9 47.53 14.9"/>
    </g>
  </g>
</svg>